subject_03
version=1
nRows=282
nColumns=3
inDegrees=yes
endheader
time	r_shoulder_elev	r_elbow_flex
23.0000	26.780303	66.313648
23.0100	26.780303	64.896870
23.0200	26.780303	63.342870
23.0300	26.780303	61.680355
23.0400	26.780303	59.984502
23.0500	26.780303	58.361540
23.0600	26.780303	56.914343
23.0700	26.780303	55.698363
23.0800	26.780303	54.686820
23.0900	26.780303	53.765955
23.1000	26.780303	52.771184
23.1100	26.780303	51.555707
23.1200	26.780303	50.063556
23.1300	26.780303	48.370555
23.1400	26.780303	46.666507
23.1500	26.780303	45.178300
23.1600	26.780303	44.064574
23.1700	26.780303	43.331940
23.1800	26.780303	42.818068
23.1900	26.780303	42.257590
23.2000	26.780303	41.405512
23.2100	26.780303	40.160492
23.2200	26.780303	38.625141
23.2300	26.780303	37.067803
23.2400	26.780303	35.798429
23.2500	26.780303	35.016331
23.2600	26.780303	34.705778
23.2700	26.780303	34.635133
23.2800	26.780303	34.464872
23.2900	26.780303	33.914092
23.3000	26.780303	32.902950
23.3100	26.780303	31.597756
23.3200	26.780303	30.333014
23.3300	26.780303	29.447101
23.3400	26.780303	29.113394
23.3500	26.780303	29.252556
23.3600	26.780303	29.571344
23.3700	26.780303	29.708985
23.3800	26.780303	29.416895
23.3900	26.780303	28.680335
23.4000	26.780303	27.720595
23.4100	26.780303	26.878093
23.4200	26.780303	26.438017
23.4300	26.780303	26.488901
23.4400	26.780303	26.885814
23.4500	26.780303	27.334088
23.4600	26.780303	27.546327
23.4700	26.780303	27.388414
23.4800	26.780303	26.938495
23.4900	26.780303	26.431256
23.5000	26.780303	26.121734
23.5100	26.780303	26.144896
23.5200	26.780303	26.447122
23.5300	26.780303	26.824418
23.5400	26.780303	27.042899
23.5500	26.780303	26.973676
23.5600	26.780303	26.665322
23.5700	26.780303	26.312363
23.5800	26.780303	26.141826
23.5900	26.780303	26.280584
23.6000	26.780303	26.678235
23.6100	26.780303	27.129443
23.6200	26.780303	27.384411
23.6300	26.780303	27.287161
23.6400	26.780303	26.865579
23.6500	26.780303	26.323183
23.6600	26.780303	25.935955
23.6700	26.780303	25.909020
23.6800	26.780303	26.269461
23.6900	26.780303	26.851826
23.7000	26.780303	27.382992
23.7100	26.780303	27.620409
23.7200	26.780303	27.470778
23.7300	26.780303	27.028673
23.7400	26.780303	26.518884
23.7500	26.780303	26.177694
23.7600	26.780303	26.138572
23.7700	26.780303	26.379012
23.7800	26.780303	26.752854
23.7900	26.780303	27.082460
23.8000	26.780303	27.254896
23.8100	26.780303	27.269052
23.8200	26.780303	27.212689
23.8300	26.780303	27.190509
23.8400	26.780303	27.251766
23.8500	26.780303	27.363290
23.8600	26.780303	27.443565
23.8700	26.780303	27.434133
23.8800	26.780303	27.360120
23.8900	26.780303	27.336793
23.9000	26.780303	27.511490
23.9100	26.780303	27.971004
23.9200	26.780303	28.669337
23.9300	26.780303	29.423987
23.9400	26.780303	29.992738
23.9500	26.780303	30.196845
23.9600	26.780303	30.026458
23.9700	26.780303	29.668217
23.9800	26.780303	29.432724
23.9900	26.780303	29.611906
24.0000	26.780303	30.335280
24.0100	26.780303	31.498279
24.0200	26.780303	32.801788
24.0300	26.780303	33.886843
24.0400	26.780303	34.500374
24.0500	26.780303	34.611851
24.0600	26.780303	34.424916
24.0700	26.780303	34.279932
24.0800	26.780303	34.496344
24.0900	26.780303	35.231141
24.1000	26.780303	36.418847
24.1100	26.780303	37.816174
24.1200	26.780303	39.123375
24.1300	26.780303	40.120110
24.1400	26.780303	40.752013
24.1500	26.780303	41.133423
24.1600	26.780303	41.474863
24.1700	26.780303	41.978203
24.1800	26.780303	42.752083
24.1900	26.780303	43.783054
24.2000	26.780303	44.965988
24.2100	26.780303	46.168494
24.2200	26.780303	47.292530
24.2300	26.780303	48.305234
24.2400	26.780303	49.232289
24.2500	26.780303	50.127414
24.2600	26.780303	51.040152
24.2700	26.780303	51.998584
24.2800	26.780303	53.010036
24.2900	26.780303	54.071063
24.3000	26.780303	55.175056
24.3100	26.780303	56.311978
24.3200	26.780303	57.464038
24.3300	26.780303	58.605994
24.3400	26.780303	59.715351
24.3500	26.780303	60.788558
24.3600	26.780303	61.851447
24.3700	26.780303	62.952423
24.3800	26.780303	64.136594
24.3900	26.780303	65.412857
24.4000	26.780303	66.734558
24.4100	26.780303	68.010681
24.4200	26.780303	69.148610
24.4300	26.780303	70.109490
24.4400	26.780303	70.945243
24.4500	26.780303	71.791119
24.4600	26.780303	72.809112
24.4700	26.780303	74.105207
24.4800	26.780303	75.662047
24.4900	26.780303	77.326175
24.5000	26.780303	78.864530
24.5100	26.780303	80.069456
24.5200	26.780303	80.863493
24.5300	26.780303	81.350465
24.5400	26.780303	81.782304
24.5500	26.780303	82.451446
24.5600	26.780303	83.556651
24.5700	26.780303	85.105859
24.5800	26.780303	86.904298
24.5900	26.780303	88.636218
24.6000	26.780303	90.003759
24.6100	26.780303	90.858748
24.6200	26.780303	91.266557
24.6300	26.780303	91.473571
24.6400	26.780303	91.795342
24.6500	26.780303	92.478625
24.6600	26.780303	93.600238
24.6700	26.780303	95.045541
24.6800	26.780303	96.570451
24.6900	26.780303	97.912980
24.7000	26.780303	98.901140
24.7100	26.780303	99.511122
24.7200	26.780303	99.857035
24.7300	26.780303	100.126087
24.7400	26.780303	100.494987
24.7500	26.780303	101.065678
24.7600	26.780303	101.843128
24.7700	26.780303	102.755015
24.7800	26.780303	103.695036
24.7900	26.780303	104.565999
24.8000	26.780303	105.305875
24.8100	26.780303	105.893064
24.8200	26.780303	106.337998
24.8300	26.780303	106.671559
24.8400	26.780303	106.936813
24.8500	26.780303	107.183869
24.8600	26.780303	107.463571
24.8700	26.780303	107.816803
24.8800	26.780303	108.261125
24.8900	26.780303	108.780972
24.9000	26.780303	109.328210
24.9100	26.780303	109.835523
24.9200	26.780303	110.238510
24.9300	26.780303	110.497650
24.9400	26.780303	110.611227
24.9500	26.780303	110.614837
24.9600	26.780303	110.569245
24.9700	26.780303	110.542454
24.9800	26.780303	110.592160
24.9900	26.780303	110.752061
25.0000	26.780303	111.022857
25.0100	26.780303	111.368300
25.0200	26.780303	111.718511
25.0300	26.780303	111.984173
25.0400	26.780303	112.083067
25.0500	26.780303	111.973946
25.0600	26.780303	111.684755
25.0700	26.780303	111.318637
25.0800	26.780303	111.026508
25.0900	26.780303	110.949655
25.1000	26.780303	111.153440
25.1100	26.780303	111.583932
25.1200	26.780303	112.074516
25.1300	26.780303	112.408298
25.1400	26.780303	112.416617
25.1500	26.780303	112.066975
25.1600	26.780303	111.494170
25.1700	26.780303	110.951737
25.1800	26.780303	110.698885
25.1900	26.780303	110.873503
25.2000	26.780303	111.414565
25.2100	26.780303	112.077997
25.2200	26.780303	112.545721
25.2300	26.780303	112.579396
25.2400	26.780303	112.143636
25.2500	26.780303	111.433964
25.2600	26.780303	110.789752
25.2700	26.780303	110.530485
25.2800	26.780303	110.795124
25.2900	26.780303	111.466503
25.3000	26.780303	112.222442
25.3100	26.780303	112.691739
25.3200	26.780303	112.638103
25.3300	26.780303	112.078395
25.3400	26.780303	111.277642
25.3500	26.780303	110.617610
25.3600	26.780303	110.405364
25.3700	26.780303	110.719251
25.3800	26.780303	111.370577
25.3900	26.780303	112.000023
25.4000	26.780303	112.258713
25.4100	26.780303	111.980671
25.4200	26.780303	111.258854
25.4300	26.780303	110.387936
25.4400	26.780303	109.706576
25.4500	26.780303	109.423314
25.4600	26.780303	109.516702
25.4700	26.780303	109.758969
25.4800	26.780303	109.846153
25.4900	26.780303	109.561846
25.5000	26.780303	108.886170
25.5100	26.780303	107.993725
25.5200	26.780303	107.145918
25.5300	26.780303	106.540253
25.5400	26.780303	106.201009
25.5500	26.780303	105.970884
25.5600	26.780303	105.606091
25.5700	26.780303	104.919798
25.5800	26.780303	103.892515
25.5900	26.780303	102.687044
25.6000	26.780303	101.559239
25.6100	26.780303	100.713981
25.6200	26.780303	100.186508
25.6300	26.780303	99.815576
25.6400	26.780303	99.324650
25.6500	26.780303	98.468111
25.6600	26.780303	97.163798
25.6700	26.780303	95.540473
25.6800	26.780303	93.874646
25.6900	26.780303	92.450511
25.7000	26.780303	91.417224
25.7100	26.780303	90.717863
25.7200	26.780303	90.124967
25.7300	26.780303	89.360550
25.7400	26.780303	88.235102
25.7500	26.780303	86.733168
25.7600	26.780303	85.004980
25.7700	26.780303	83.275561
25.7800	26.780303	81.725690
25.7900	26.780303	80.410082
25.8000	26.780303	79.252725
25.8100	26.780303	78.113440
